# xmcd
#
# Track frame offsets:
#	225
#	12500
#	28282
#	41400
#	51115
#	63905
#	74350
#	84447
#	99125
#	111180
#	126407
#	137115
#	155877
#	174902
#	189230
#	202075
#	214110
#
# Disc length: 3028 seconds
#
# Revision: 1
# Processed by: cddbd v1.4PL0 Copyright (c) Steve Scherf et al.
# Submitted via: audiograbber 1.81.02
#
DISCID=f30bd111
DTITLE=Red Steagall - Cowboy Code (Disk 1)
DYEAR=1996
DGENRE=western
TTITLE0=I Was Born To Be A Cowboy
TTITLE1=Ballad Of Dawson Legate
TTITLE2=Bandito Gold
TTITLE3=Two Pairs Of Levis and A Pair Of Justin Boots
TTITLE4=He Preferred Bucking Horses To Books
TTITLE5=Tight Levis and Yellow Ribbons
TTITLE6=My Heroes Have Always Been Cowboys
TTITLE7=Deacon and The Dun
TTITLE8=When Work's All Done This Fall
TTITLE9=The Bell On Old Blue
TTITLE10=Smokey
TTITLE11=Sourdough, Beafsteak And Beans
TTITLE12=Little Joe The Wrangler
TTITLE13=The Code Of The West Hasn't Changed
TTITLE14=Strawberry Roan
TTITLE15=Bedroll
TTITLE16=Underneath A Wide Texas Sky
EXTD=
EXTT0=
EXTT1=
EXTT2=
EXTT3=
EXTT4=
EXTT5=
EXTT6=
EXTT7=
EXTT8=
EXTT9=
EXTT10=
EXTT11=
EXTT12=
EXTT13=
EXTT14=
EXTT15=
EXTT16=
PLAYORDER=
